<?xml version="1.0" encoding="iso-8859-1"?>
<!-- Generator: Adobe Illustrator 19.0.0, SVG Export Plug-In . SVG Version: 6.00 Build 0)  -->
<svg version="1.1" id="Layer_1" xmlns="http://www.w3.org/2000/svg" xmlns:xlink="http://www.w3.org/1999/xlink" x="0px" y="0px"
	 viewBox="0 0 511.999 511.999" style="enable-background:new 0 0 511.999 511.999;" xml:space="preserve">
<g>
	<g>
		<path d="M493.246,18.744c-24.992-24.993-65.508-24.993-90.501,0l-2.588,2.588H21.342c-11.782,0-21.333,9.551-21.333,21.333v448
			c0,11.782,9.551,21.333,21.333,21.333h448c11.782,0,21.333-9.551,21.333-21.333v-378.85l2.572-2.572
			C518.238,84.252,518.238,43.737,493.246,18.744z M463.076,48.914c8.33,8.33,8.33,21.831,0,30.161l-163.59,163.607l-40.899,40.899
			c-5.27,5.27-10.97,10.005-17.005,14.197c-14.144,9.82-30.168,16.606-47.057,19.907c4.65-24.352,16.514-46.895,34.209-64.59
			L432.915,48.914C441.245,40.584,454.746,40.584,463.076,48.914z M448.008,154.499v314.833H42.675V63.999h314.811L198.556,222.93
			c-28.714,28.714-45.981,66.916-48.573,107.463l-0.231,3.704l-0.378,5.856c-0.646,9.996,5.682,18.745,14.691,21.67
			c2.078,0.676,4.3,1.043,6.611,1.043c34.609,0,68.097-10.737,96.03-30.374c7.822-5.498,15.209-11.693,22.061-18.545l41.013-41.018
			L448.008,154.499z"/>
	</g>
</g>
<g>
</g>
<g>
</g>
<g>
</g>
<g>
</g>
<g>
</g>
<g>
</g>
<g>
</g>
<g>
</g>
<g>
</g>
<g>
</g>
<g>
</g>
<g>
</g>
<g>
</g>
<g>
</g>
<g>
</g>
</svg>
